<?xml version="1.0" standalone="no"?>
<!DOCTYPE svg PUBLIC "-//W3C//DTD SVG 20010904//EN"
 "http://www.w3.org/TR/2001/REC-SVG-20010904/DTD/svg10.dtd">
<svg version="1.0" xmlns="http://www.w3.org/2000/svg"
 width="400.000000pt" height="117.000000pt" viewBox="0 0 400.000000 117.000000"
 preserveAspectRatio="xMidYMid meet">

<g transform="translate(0.000000,117.000000) scale(0.100000,-0.100000)"
fill="red" stroke="none">
<path d="M1300 930 c0 -121 -2 -220 -5 -220 -3 0 -21 18 -41 39 -47 52 -110
76 -199 76 -58 -1 -79 -6 -123 -30 -30 -16 -65 -42 -78 -58 -14 -16 -27 -27
-30 -25 -2 3 -12 93 -21 201 l-17 197 -96 0 -96 0 -83 -217 c-46 -120 -87
-222 -91 -226 -4 -4 -45 92 -92 215 l-86 223 -95 3 -95 3 -7 -53 c-22 -200
-45 -503 -45 -611 l0 -128 78 3 77 3 17 205 c9 113 17 217 17 233 1 15 4 27 9
27 4 0 43 -104 87 -231 l79 -230 54 3 54 3 78 223 c42 122 80 225 83 228 8 9
15 -42 27 -206 6 -80 13 -171 17 -202 l6 -58 83 0 84 0 0 42 0 42 28 -26 c43
-41 92 -61 163 -66 82 -6 166 17 213 58 18 17 36 30 40 30 3 0 6 -18 6 -40 l0
-40 80 0 80 0 0 62 0 61 38 -41 c60 -65 118 -87 232 -87 110 0 163 19 223 79
l36 36 48 -48 c80 -79 179 -94 278 -42 31 16 58 30 59 30 2 0 2 -10 2 -22 -1
-22 3 -23 81 -26 l83 -3 2 183 3 183 78 -139 c42 -76 77 -143 77 -149 0 -6
-36 -80 -80 -164 -44 -85 -80 -157 -80 -159 0 -2 42 -4 93 -4 l93 0 101 193
c55 105 142 272 193 370 l92 177 -95 0 -95 0 -34 -72 c-18 -40 -45 -97 -59
-127 l-25 -55 -69 127 -69 127 -63 0 -63 0 0 170 0 170 -85 0 -85 0 0 -189 0
-190 -42 24 c-102 56 -213 39 -292 -45 l-47 -50 -30 35 c-50 56 -127 88 -217
89 -106 1 -172 -23 -234 -85 l-48 -48 0 229 0 230 -80 0 -80 0 0 -220z m-169
-239 c16 -16 29 -34 29 -40 0 -7 -34 -11 -95 -11 -106 0 -117 9 -70 55 36 37
97 35 136 -4z m660 -24 c131 -88 18 -274 -122 -201 -31 16 -59 66 -59 106 0
35 37 88 73 103 45 20 69 18 108 -8z m536 -2 c48 -32 64 -120 30 -165 -52 -68
-155 -67 -197 2 -29 47 -26 99 7 138 14 18 36 36 47 41 28 12 82 4 113 -16z
m-1029 -167 c2 -28 -1 -48 -7 -48 -6 0 -31 10 -56 22 l-45 22 -25 -24 c-18
-17 -40 -25 -80 -28 -52 -4 -56 -3 -90 31 -19 19 -35 45 -35 56 0 21 3 21 168
19 l167 -3 3 -47z"/>
<path d="M3518 973 c7 -3 16 -2 19 1 4 3 -2 6 -13 5 -11 0 -14 -3 -6 -6z"/>
<path d="M3487 947 c-23 -7 -35 -16 -30 -21 4 -5 1 -7 -8 -3 -9 3 -31 -3 -48
-14 -39 -24 -48 -24 -30 -2 23 28 -42 -21 -71 -54 -21 -24 -19 -23 11 5 51 47
58 39 11 -12 -43 -47 -99 -143 -68 -117 9 8 20 10 24 6 4 -4 2 -10 -4 -12 -40
-14 -57 -54 -55 -133 0 -8 1 -34 1 -57 1 -26 6 -43 15 -47 8 -3 15 -10 15 -16
0 -6 -4 -8 -10 -5 -15 9 4 -34 40 -94 32 -52 62 -77 80 -66 6 3 10 -4 10 -17
0 -17 2 -20 9 -9 8 12 11 12 25 -1 8 -9 12 -18 9 -22 -12 -11 28 -18 41 -7 11
9 15 9 18 0 3 -8 12 -4 26 11 22 23 28 17 16 -14 -3 -9 -11 -13 -18 -10 -6 3
0 -4 13 -15 13 -12 32 -21 43 -21 19 0 19 1 5 24 -9 13 -13 26 -10 30 3 3 7
20 8 38 1 18 0 28 -2 21 -2 -7 -12 -9 -21 -6 -15 4 -15 3 -2 -7 12 -10 11 -11
-10 -6 -14 3 -29 6 -33 6 -5 0 -5 5 -2 10 4 6 11 7 17 4 7 -4 8 -2 4 4 -9 15
-36 16 -36 1 0 -5 -4 -7 -10 -4 -5 3 -10 -2 -10 -12 0 -11 -6 -27 -13 -37 -10
-13 -14 -14 -14 -5 0 8 -3 24 -7 37 -5 13 -3 22 3 22 6 0 11 -6 12 -12 0 -7 5
-3 11 10 6 12 15 22 20 22 5 0 2 10 -6 22 -25 35 -19 63 20 98 29 25 44 31 69
28 l33 -4 1 184 c1 101 4 188 7 193 11 18 57 9 80 -17 13 -14 24 -29 24 -35 0
-5 23 -25 50 -45 76 -55 58 -61 -65 -21 -19 6 -20 3 -15 -63 3 -39 8 -70 13
-70 4 0 14 0 22 0 9 0 12 6 9 18 -5 13 -4 14 4 3 5 -7 15 -10 21 -7 6 4 11 4
11 1 0 -3 -18 -14 -41 -24 -40 -18 -40 -19 -19 -34 17 -12 18 -16 6 -20 -8 -3
-16 -1 -18 5 -2 6 -4 -16 -5 -48 -1 -42 3 -64 15 -78 16 -18 16 -19 0 -13 -12
4 -18 -2 -23 -21 -8 -32 -33 -62 -52 -62 -7 0 -18 -12 -23 -26 -13 -32 -12
-37 0 -29 12 7 41 -55 33 -69 -8 -12 84 2 127 20 19 8 43 24 53 35 19 20 19
20 -1 26 -14 3 -19 10 -15 21 5 14 3 15 -8 5 -21 -20 -53 -17 -45 4 4 10 4 14
0 11 -4 -4 -16 -2 -28 4 -11 7 -24 11 -28 10 -13 -3 -9 5 9 19 14 12 16 12 8
0 -6 -11 -4 -13 8 -8 10 3 17 3 17 -2 0 -5 8 -8 17 -7 10 0 18 -5 19 -11 3
-24 4 -25 17 -15 15 13 77 13 93 1 7 -6 16 -3 24 6 11 13 11 16 -1 13 -9 -2
-13 4 -11 15 2 9 -2 17 -9 17 -6 0 -9 7 -6 15 4 8 2 17 -3 20 -20 12 -9 25 15
19 15 -4 25 -2 25 4 0 6 -8 12 -17 15 -15 3 -14 6 6 14 21 9 22 11 7 25 -21
22 -20 31 2 19 13 -7 27 -6 45 4 15 8 27 10 27 5 0 -5 -9 -12 -21 -15 -25 -8
-40 -44 -27 -67 13 -26 28 -22 28 6 0 13 6 26 14 29 7 3 16 20 18 37 4 23 0
35 -16 47 l-21 15 22 -5 c21 -5 22 -2 19 57 -2 45 -11 80 -33 127 -33 70 -96
145 -113 134 -6 -4 -9 -1 -8 6 2 7 -23 26 -55 43 -51 26 -71 31 -150 33 -53 1
-108 -3 -130 -10z m37 -33 c3 -8 2 -12 -4 -9 -6 3 -10 1 -10 -4 0 -6 -4 -11
-9 -11 -5 0 -7 9 -4 20 6 24 19 26 27 4z m166 -4 c0 -5 -5 -10 -11 -10 -5 0
-7 5 -4 10 3 6 8 10 11 10 2 0 4 -4 4 -10z m-215 -10 c3 -5 -1 -10 -9 -10 -9
0 -16 5 -16 10 0 6 4 10 9 10 6 0 13 -4 16 -10z m-12 -80 c4 -15 0 -20 -16
-20 -18 0 -19 2 -7 10 11 7 11 10 2 10 -7 0 -10 5 -7 10 10 16 22 12 28 -10z
m27 10 c0 -5 -5 -10 -11 -10 -5 0 -7 5 -4 10 3 6 8 10 11 10 2 0 4 -4 4 -10z
m-100 -10 c0 -5 -4 -10 -9 -10 -6 0 -13 5 -16 10 -3 6 1 10 9 10 9 0 16 -4 16
-10z m340 -10 c0 -5 -4 -10 -10 -10 -5 0 -10 5 -10 10 0 6 5 10 10 10 6 0 10
-4 10 -10z m24 -26 c3 -8 2 -12 -4 -9 -6 3 -10 10 -10 16 0 14 7 11 14 -7z
m-256 -27 c7 3 12 -3 11 -14 0 -10 -3 -13 -5 -6 -7 15 -34 5 -34 -13 0 -7 -7
-17 -15 -22 -14 -7 -13 -12 5 -35 13 -16 24 -48 27 -77 l5 -50 -45 2 c-25 1
-43 6 -40 12 3 5 -5 7 -21 4 -14 -3 -26 -1 -26 3 0 5 8 9 18 9 14 0 15 2 2 9
-8 6 -19 7 -25 3 -5 -3 -3 3 5 13 9 11 10 16 3 11 -7 -4 -13 -3 -13 3 0 5 5
13 10 16 6 4 8 15 5 26 -5 14 0 21 15 27 20 7 20 9 6 21 -18 15 -22 41 -6 41
6 0 9 -4 8 -9 -2 -5 2 -11 7 -12 6 -2 11 6 13 19 2 15 9 22 17 18 7 -2 15 4
19 17 l5 21 18 -20 c10 -12 24 -19 31 -17z m-143 -98 c0 -31 -22 -48 -27 -21
-4 19 14 63 22 55 3 -2 5 -18 5 -34z m145 31 c-20 -13 -33 -13 -25 0 3 6 14
10 23 10 15 0 15 -2 2 -10z m-192 -73 c-7 -12 -12 -25 -13 -29 0 -3 -4 -10 -9
-15 -5 -5 -6 -3 -2 5 4 6 3 12 -2 12 -5 0 -12 9 -15 21 -3 13 -1 19 6 16 7 -3
11 -11 9 -18 -3 -11 -1 -12 9 -2 10 11 9 16 -7 28 -12 9 -14 14 -5 15 8 0 11
6 7 18 -4 12 0 10 14 -6 16 -20 18 -27 8 -45z m-63 4 c2 -17 0 -31 -4 -31 -4
0 -7 16 -8 36 -1 42 6 40 12 -5z m313 14 c-3 -3 -9 2 -12 12 -6 14 -5 15 5 6
7 -7 10 -15 7 -18z m-38 -25 c0 -5 -2 -10 -4 -10 -3 0 -8 5 -11 10 -3 6 -1 10
4 10 6 0 11 -4 11 -10z m-185 -10 c-3 -5 -11 -10 -16 -10 -6 0 -7 5 -4 10 3 6
11 10 16 10 6 0 7 -4 4 -10z m392 -14 c-3 -7 0 -19 6 -26 9 -10 9 -11 -3 -5
-35 19 -42 28 -28 36 20 13 31 11 25 -5z m96 -14 c-3 -12 -12 -22 -19 -22 -19
0 -18 10 4 30 21 21 23 20 15 -8z m-299 3 c-4 -8 -1 -15 5 -15 6 0 11 -5 11
-10 0 -7 -6 -7 -20 0 -18 10 -18 40 1 40 4 0 6 -7 3 -15z m38 -7 c-7 -7 -12
-8 -12 -2 0 14 12 26 19 19 2 -3 -1 -11 -7 -17z m-222 2 c0 -5 -5 -10 -11 -10
-5 0 -7 5 -4 10 3 6 8 10 11 10 2 0 4 -4 4 -10z m435 0 c3 -5 3 -15 -1 -21 -6
-11 -23 6 -24 24 0 10 18 9 25 -3z m80 -17 c12 -16 14 -16 29 0 23 23 29 22
14 -2 -14 -23 -48 -40 -65 -34 -15 5 -17 33 -3 33 6 0 10 -5 10 -12 0 -6 3 -8
6 -5 4 4 1 13 -6 22 -7 8 -9 15 -5 15 4 0 13 -8 20 -17z m-301 -28 c-7 -16
-24 -21 -24 -6 0 8 7 13 27 20 1 1 0 -6 -3 -14z m174 -10 c2 -1 -9 -2 -23 -2
-15 0 -25 5 -25 14 0 11 4 11 23 2 12 -6 23 -13 25 -14z m-383 5 c3 -6 -1 -7
-9 -4 -18 7 -21 14 -7 14 6 0 13 -4 16 -10z m151 -13 c2 -13 -2 -15 -16 -7 -9
5 -20 6 -24 3 -3 -3 -6 -1 -6 5 0 25 42 25 46 -1z m-106 -12 c0 -14 -4 -25 -9
-25 -4 0 -6 11 -3 25 2 14 6 25 8 25 2 0 4 -11 4 -25z m45 15 c-3 -5 -12 -7
-20 -3 -21 7 -19 13 6 13 11 0 18 -4 14 -10z m257 -32 c-8 -8 -8 -15 -1 -24 7
-8 7 -14 -1 -19 -13 -8 -24 20 -16 40 3 8 11 15 18 15 9 0 9 -3 0 -12z m155
-7 c-1 -15 -4 -17 -14 -9 -10 8 -13 7 -13 -3 0 -10 -3 -10 -12 -1 -10 10 -10
15 2 22 24 15 39 11 37 -9z m-110 -7 c-3 -3 -12 -4 -19 -1 -8 3 -5 6 6 6 11 1
17 -2 13 -5z m29 -59 c1 -8 -2 -15 -7 -15 -5 0 -9 10 -9 22 0 23 12 17 16 -7z
m-426 -75 c0 -5 -2 -10 -4 -10 -3 0 -8 5 -11 10 -3 6 -1 10 4 10 6 0 11 -4 11
-10z m334 -11 c-8 -13 -21 -11 -27 5 -4 10 0 12 14 9 10 -3 16 -9 13 -14z
m-274 -9 c0 -5 -5 -10 -11 -10 -5 0 -7 5 -4 10 3 6 8 10 11 10 2 0 4 -4 4 -10z
m309 3 c-3 -21 2 -34 13 -31 16 6 43 -20 33 -30 -4 -4 -10 -2 -12 4 -7 20 -43
3 -44 -20 0 -20 -1 -20 -9 -1 l-9 20 0 -20 c-1 -17 -3 -17 -11 -5 -7 11 -3 18
16 28 20 10 22 16 14 32 -13 24 -13 30 0 30 6 0 9 -3 9 -7z"/>
<path d="M3435 737 c-14 -11 -15 -16 -5 -22 9 -6 11 -4 5 5 -6 9 -4 12 7 8 9
-4 15 0 15 8 0 17 1 17 -22 1z"/>
<path d="M3385 610 c3 -5 11 -10 16 -10 6 0 7 5 4 10 -3 6 -11 10 -16 10 -6 0
-7 -4 -4 -10z"/>
<path d="M3404 934 c-18 -14 -18 -14 6 -3 31 14 36 19 24 19 -6 0 -19 -7 -30
-16z"/>
<path d="M3800 927 c0 -2 15 -14 33 -27 20 -15 27 -17 18 -6 -13 16 -51 41
-51 33z"/>
<path d="M3900 836 c0 -2 8 -10 18 -17 15 -13 16 -12 3 4 -13 16 -21 21 -21
13z"/>
<path d="M3240 769 c-7 -11 -10 -23 -7 -25 2 -2 9 7 15 21 14 30 7 33 -8 4z"/>
<path d="M3991 634 c0 -11 3 -14 6 -6 3 7 2 16 -1 19 -3 4 -6 -2 -5 -13z"/>
<path d="M3886 400 c-11 -3 -15 -9 -10 -13 10 -6 42 9 34 16 -3 3 -14 1 -24
-3z"/>
<path d="M3538 183 c7 -3 16 -2 19 1 4 3 -2 6 -13 5 -11 0 -14 -3 -6 -6z"/>
</g>
</svg>
